<svg width="40" height="11" viewBox="0 0 40 11" fill="none" xmlns="http://www.w3.org/2000/svg">
<path d="M5.86761 9.35176L1.24761 7.46776C0.815609 7.29176 0.599609 6.98376 0.599609 6.54376C0.599609 6.32776 0.651609 6.14776 0.755609 6.00376C0.867609 5.85176 1.03161 5.73176 1.24761 5.64376L5.86761 3.74776C6.02761 3.68376 6.16761 3.67576 6.28761 3.72376C6.41561 3.76376 6.51561 3.83576 6.58761 3.93976C6.66761 4.04376 6.71161 4.16376 6.71961 4.29976C6.72761 4.42776 6.69961 4.55176 6.63561 4.67176C6.57161 4.78376 6.46361 4.87176 6.31161 4.93576L1.16361 6.99976V6.11176L6.31161 8.18776C6.46361 8.25176 6.57161 8.34376 6.63561 8.46376C6.69961 8.57576 6.72761 8.69576 6.71961 8.82376C6.71161 8.95176 6.66761 9.06776 6.58761 9.17176C6.51561 9.27576 6.41561 9.34776 6.28761 9.38776C6.16761 9.42776 6.02761 9.41576 5.86761 9.35176Z" fill="#1B1B1B"/>
<path d="M9.39092 10.1078C9.11892 10.1078 8.91092 10.0318 8.76692 9.87976C8.62292 9.72776 8.55092 9.51576 8.55092 9.24376V2.29576C8.55092 2.02376 8.62692 1.81176 8.77892 1.65976C8.93892 1.50776 9.15492 1.43176 9.42692 1.43176C9.66692 1.43176 9.85492 1.47976 9.99092 1.57576C10.1349 1.66376 10.2669 1.81976 10.3869 2.04376L13.1589 7.10776H12.7509L15.5229 2.04376C15.6429 1.81976 15.7709 1.66376 15.9069 1.57576C16.0509 1.47976 16.2389 1.43176 16.4709 1.43176C16.7429 1.43176 16.9509 1.50776 17.0949 1.65976C17.2469 1.81176 17.3229 2.02376 17.3229 2.29576V9.24376C17.3229 9.51576 17.2509 9.72776 17.1069 9.87976C16.9629 10.0318 16.7549 10.1078 16.4829 10.1078C16.2109 10.1078 15.9989 10.0318 15.8469 9.87976C15.7029 9.72776 15.6309 9.51576 15.6309 9.24376V4.38376H15.8949L13.6629 8.37976C13.5669 8.53176 13.4629 8.64776 13.3509 8.72776C13.2469 8.79976 13.1069 8.83576 12.9309 8.83576C12.7549 8.83576 12.6109 8.79576 12.4989 8.71576C12.3869 8.63576 12.2869 8.52376 12.1989 8.37976L9.94292 4.37176H10.2309V9.24376C10.2309 9.51576 10.1589 9.72776 10.0149 9.87976C9.87892 10.0318 9.67092 10.1078 9.39092 10.1078Z" fill="white"/>
<path d="M19.7586 10.1078C19.5346 10.1078 19.3506 10.0558 19.2066 9.95176C19.0706 9.84776 18.9826 9.70776 18.9426 9.53176C18.9106 9.35576 18.9466 9.15976 19.0506 8.94376L22.1226 2.21176C22.2506 1.93976 22.4026 1.74376 22.5786 1.62376C22.7546 1.49576 22.9586 1.43176 23.1906 1.43176C23.4226 1.43176 23.6266 1.49576 23.8026 1.62376C23.9786 1.74376 24.1266 1.93976 24.2466 2.21176L27.3426 8.94376C27.4466 9.15976 27.4826 9.35976 27.4506 9.54376C27.4266 9.71976 27.3466 9.85976 27.2106 9.96376C27.0746 10.0598 26.8986 10.1078 26.6826 10.1078C26.4106 10.1078 26.1986 10.0438 26.0466 9.91576C25.9026 9.78776 25.7746 9.58776 25.6626 9.31576L24.9426 7.64776L25.6866 8.16376H20.6826L21.4266 7.64776L20.7186 9.31576C20.5986 9.59576 20.4706 9.79976 20.3346 9.92776C20.2066 10.0478 20.0146 10.1078 19.7586 10.1078ZM23.1666 3.51976L21.6306 7.17976L21.3066 6.71176H25.0626L24.7386 7.17976L23.1906 3.51976H23.1666Z" fill="white"/>
<path d="M29.8411 10.3118C29.7851 10.4878 29.6931 10.6158 29.5651 10.6958C29.4451 10.7758 29.3091 10.8158 29.1571 10.8158C29.0131 10.8158 28.8811 10.7758 28.7611 10.6958C28.6411 10.6238 28.5531 10.5198 28.4971 10.3838C28.4411 10.2478 28.4451 10.0838 28.5091 9.89176L31.2211 1.43176C31.2771 1.25576 31.3691 1.12776 31.4971 1.04776C31.6251 0.959758 31.7571 0.919758 31.8931 0.927758C32.0371 0.927758 32.1691 0.967758 32.2891 1.04776C32.4171 1.11976 32.5091 1.22376 32.5651 1.35976C32.6211 1.48776 32.6171 1.64776 32.5531 1.83976L29.8411 10.3118Z" fill="#1B1B1B"/>
<path d="M34.3417 9.35176C34.1817 9.41576 34.0377 9.42776 33.9097 9.38776C33.7817 9.34776 33.6817 9.27576 33.6097 9.17176C33.5377 9.06776 33.4937 8.95176 33.4777 8.82376C33.4697 8.69576 33.4977 8.57576 33.5617 8.46376C33.6337 8.34376 33.7457 8.25176 33.8977 8.18776L39.0457 6.11176V6.99976L33.8977 4.93576C33.7457 4.87176 33.6337 4.78376 33.5617 4.67176C33.4977 4.55176 33.4697 4.42776 33.4777 4.29976C33.4937 4.16376 33.5377 4.04376 33.6097 3.93976C33.6817 3.83576 33.7817 3.76376 33.9097 3.72376C34.0377 3.67576 34.1817 3.68376 34.3417 3.74776L38.9617 5.64376C39.3937 5.81976 39.6097 6.11976 39.6097 6.54376C39.6097 6.75976 39.5537 6.94376 39.4417 7.09576C39.3377 7.24776 39.1777 7.37176 38.9617 7.46776L34.3417 9.35176Z" fill="#1B1B1B"/>
</svg>
