<svg width="100" height="24" viewBox="0 0 100 24" fill="none" xmlns="http://www.w3.org/2000/svg">
<path d="M12.5758 20.447L1.5469 15.8746C0.515635 15.4475 0 14.7 0 13.6321C0 13.1079 0.124134 12.671 0.372403 12.3216C0.639769 11.9527 1.03127 11.6614 1.5469 11.4479L12.5758 6.84639C12.9577 6.69107 13.2919 6.67165 13.5784 6.78815C13.8839 6.88523 14.1227 7.05997 14.2945 7.31237C14.4855 7.56477 14.5906 7.856 14.6096 8.18606C14.6287 8.49671 14.5619 8.79765 14.4091 9.08889C14.2563 9.3607 13.9985 9.57427 13.6357 9.7296L1.34638 14.7388V12.5837L13.6357 17.622C13.9985 17.7773 14.2563 18.0006 14.4091 18.2918C14.5619 18.5637 14.6287 18.8549 14.6096 19.1655C14.5906 19.4762 14.4855 19.7577 14.2945 20.0101C14.1227 20.2625 13.8839 20.4373 13.5784 20.5343C13.2919 20.6314 12.9577 20.6023 12.5758 20.447Z" fill="#5086FD"/>
<path d="M22.7054 22.2817C22.0561 22.2817 21.5595 22.0973 21.2158 21.7284C20.872 21.3595 20.7001 20.845 20.7001 20.1849V3.32248C20.7001 2.66235 20.8816 2.14784 21.2444 1.77895C21.6264 1.41005 22.142 1.2256 22.7913 1.2256C23.3642 1.2256 23.813 1.3421 24.1377 1.57508C24.4815 1.78865 24.7966 2.16726 25.083 2.71089L31.7003 15.0009H30.7264L37.3437 2.71089C37.6301 2.16726 37.9357 1.78865 38.2604 1.57508C38.6041 1.3421 39.0529 1.2256 39.6067 1.2256C40.2561 1.2256 40.7526 1.41005 41.0964 1.77895C41.4592 2.14784 41.6406 2.66235 41.6406 3.32248V20.1849C41.6406 20.845 41.4688 21.3595 41.125 21.7284C40.7812 22.0973 40.2847 22.2817 39.6354 22.2817C38.9861 22.2817 38.48 22.0973 38.1171 21.7284C37.7734 21.3595 37.6015 20.845 37.6015 20.1849V8.38993H38.2317L32.9035 18.088C32.6743 18.4569 32.426 18.7384 32.1587 18.9326C31.9104 19.1073 31.5762 19.1947 31.1561 19.1947C30.7359 19.1947 30.3922 19.0976 30.1248 18.9034C29.8574 18.7093 29.6187 18.4375 29.4086 18.088L24.0231 8.36081H24.7106V20.1849C24.7106 20.845 24.5387 21.3595 24.195 21.7284C23.8703 22.0973 23.3738 22.2817 22.7054 22.2817Z" fill="white"/>
<path d="M49.174 22.2817C48.6392 22.2817 48.2 22.1555 47.8562 21.9031C47.5316 21.6507 47.3215 21.311 47.226 20.8838C47.1496 20.4567 47.2356 19.981 47.4838 19.4568L54.8173 3.11862C55.1229 2.45849 55.4857 1.98281 55.9059 1.69158C56.326 1.38093 56.813 1.2256 57.3668 1.2256C57.9206 1.2256 58.4076 1.38093 58.8278 1.69158C59.2479 1.98281 59.6012 2.45849 59.8877 3.11862L67.2785 19.4568C67.5267 19.981 67.6127 20.4664 67.5363 20.9129C67.479 21.3401 67.288 21.6798 66.9634 21.9322C66.6387 22.1652 66.2185 22.2817 65.7029 22.2817C65.0536 22.2817 64.5475 22.1264 64.1847 21.8158C63.8409 21.5051 63.5353 21.0197 63.268 20.3596L61.5492 16.3115L63.3253 17.5638H51.3797L53.1558 16.3115L51.4657 20.3596C51.1792 21.0391 50.8736 21.5342 50.549 21.8449C50.2434 22.1361 49.7851 22.2817 49.174 22.2817ZM57.3095 6.29305L53.6428 15.1756L52.8693 14.0398H61.8357L61.0622 15.1756L57.3668 6.29305H57.3095Z" fill="white"/>
<path d="M74.9615 22.7768C74.8278 23.204 74.6082 23.5146 74.3026 23.7088C74.0162 23.9029 73.6915 24 73.3287 24C72.9849 24 72.6698 23.9029 72.3833 23.7088C72.0969 23.534 71.8868 23.2816 71.7531 22.9516C71.6194 22.6215 71.629 22.2235 71.7818 21.7575L78.2558 1.2256C78.3895 0.798462 78.6091 0.487814 78.9147 0.293659C79.2203 0.0800891 79.5354 -0.0169884 79.86 0.00242688C80.2038 0.00242688 80.5189 0.0995043 80.8054 0.293659C81.1109 0.468399 81.3306 0.720801 81.4642 1.05086C81.5979 1.36151 81.5884 1.74982 81.4356 2.2158L74.9615 22.7768Z" fill="#5086FD"/>
<path d="M87.4242 20.447C87.0423 20.6023 86.6985 20.6314 86.393 20.5343C86.0874 20.4373 85.8487 20.2625 85.6768 20.0101C85.5049 19.7577 85.3999 19.4762 85.3617 19.1655C85.3426 18.8549 85.4095 18.5637 85.5622 18.2918C85.7341 18.0006 86.0015 17.7773 86.3643 17.622L98.6536 12.5837V14.7388L86.3643 9.7296C86.0015 9.57427 85.7341 9.3607 85.5622 9.08889C85.4095 8.79765 85.3426 8.49671 85.3617 8.18606C85.3999 7.856 85.5049 7.56477 85.6768 7.31237C85.8487 7.05997 86.0874 6.88523 86.393 6.78815C86.6985 6.67165 87.0423 6.69107 87.4242 6.84639L98.4531 11.4479C99.4844 11.875 100 12.6031 100 13.6321C100 14.1563 99.8663 14.6029 99.599 14.9718C99.3507 15.3407 98.9687 15.6416 98.4531 15.8746L87.4242 20.447Z" fill="#5086FD"/>
</svg>
