<svg width="63" height="16" viewBox="0 0 63 16" fill="none" xmlns="http://www.w3.org/2000/svg">
<path d="M8.50764 13.6313L1.0465 10.5831C0.348832 10.2983 0 9.79998 0 9.08808C0 8.7386 0.0839782 8.44737 0.251935 8.21438C0.432811 7.96845 0.697665 7.77429 1.0465 7.63191L8.50764 4.56426C8.76603 4.46071 8.99213 4.44777 9.18592 4.52543C9.39264 4.59015 9.55414 4.70664 9.67041 4.87491C9.79961 5.04318 9.87067 5.23733 9.88359 5.45738C9.89651 5.66448 9.85129 5.8651 9.74793 6.05926C9.64457 6.24047 9.47016 6.38285 9.22468 6.4864L0.91084 9.82587V8.38912L9.22468 11.748C9.47016 11.8516 9.64457 12.0004 9.74793 12.1946C9.85129 12.3758 9.89651 12.5699 9.88359 12.777C9.87067 12.9841 9.79961 13.1718 9.67041 13.3401C9.55414 13.5083 9.39264 13.6248 9.18592 13.6896C8.99213 13.7543 8.76603 13.7349 8.50764 13.6313Z" fill="white"/>
<path d="M14.1977 14.8545C13.7584 14.8545 13.4225 14.7315 13.1899 14.4856C12.9574 14.2397 12.8411 13.8967 12.8411 13.4566V2.21499C12.8411 1.7749 12.9638 1.43189 13.2093 1.18596C13.4677 0.940034 13.8165 0.817069 14.2558 0.817069C14.6434 0.817069 14.947 0.894732 15.1666 1.05006C15.3992 1.19244 15.6124 1.44484 15.8062 1.80726L20.2829 10.0006H19.6239L24.1006 1.80726C24.2944 1.44484 24.5011 1.19244 24.7208 1.05006C24.9533 0.894732 25.2569 0.817069 25.6316 0.817069C26.0709 0.817069 26.4068 0.940034 26.6394 1.18596C26.8848 1.43189 27.0076 1.7749 27.0076 2.21499V13.4566C27.0076 13.8967 26.8913 14.2397 26.6587 14.4856C26.4262 14.7315 26.0903 14.8545 25.651 14.8545C25.2117 14.8545 24.8694 14.7315 24.6239 14.4856C24.3913 14.2397 24.275 13.8967 24.275 13.4566V5.59329H24.7014L21.0968 12.0587C20.9418 12.3046 20.7738 12.4923 20.5929 12.6217C20.425 12.7382 20.1989 12.7964 19.9146 12.7964C19.6304 12.7964 19.3979 12.7317 19.217 12.6023C19.0361 12.4728 18.8746 12.2916 18.7325 12.0587L15.0891 5.57387H15.5542V13.4566C15.5542 13.8967 15.438 14.2397 15.2054 14.4856C14.9858 14.7315 14.6499 14.8545 14.1977 14.8545Z" fill="white"/>
<path d="M30.9412 14.8545C30.5794 14.8545 30.2823 14.7704 30.0497 14.6021C29.8301 14.4338 29.688 14.2073 29.6234 13.9225C29.5717 13.6378 29.6298 13.3207 29.7978 12.9712L34.7589 2.07908C34.9657 1.63899 35.2111 1.32187 35.4954 1.12772C35.7796 0.920619 36.1091 0.817069 36.4837 0.817069C36.8584 0.817069 37.1879 0.920619 37.4721 1.12772C37.7563 1.32187 37.9953 1.63899 38.1891 2.07908L43.1891 12.9712C43.357 13.3207 43.4152 13.6443 43.3635 13.942C43.3247 14.2267 43.1955 14.4532 42.9759 14.6215C42.7563 14.7768 42.472 14.8545 42.1232 14.8545C41.6839 14.8545 41.3415 14.7509 41.0961 14.5438C40.8635 14.3367 40.6568 14.0131 40.4759 13.5731L39.3132 10.8743L40.5147 11.7092H32.4334L33.6349 10.8743L32.4915 13.5731C32.2977 14.0261 32.091 14.3562 31.8714 14.5633C31.6647 14.7574 31.3546 14.8545 30.9412 14.8545ZM36.445 4.19537L33.9644 10.1171L33.4411 9.35989H39.5069L38.9837 10.1171L36.4837 4.19537H36.445Z" fill="white"/>
<path d="M47.224 15.1845C47.1335 15.4693 46.9849 15.6764 46.7782 15.8058C46.5844 15.9353 46.3648 16 46.1193 16C45.8868 16 45.6736 15.9353 45.4798 15.8058C45.286 15.6894 45.1439 15.5211 45.0534 15.301C44.963 15.081 44.9695 14.8157 45.0728 14.505L49.4526 0.817069C49.543 0.532308 49.6916 0.325209 49.8983 0.195773C50.1051 0.0533927 50.3182 -0.0113256 50.5379 0.00161792C50.7704 0.00161792 50.9836 0.0663362 51.1774 0.195773C51.3841 0.312266 51.5327 0.480534 51.6231 0.700577C51.7136 0.907675 51.7071 1.16655 51.6037 1.4772L47.224 15.1845Z" fill="white"/>
<path d="M54.4924 13.6313C54.234 13.7349 54.0014 13.7543 53.7947 13.6896C53.588 13.6248 53.4265 13.5083 53.3102 13.3401C53.1939 13.1718 53.1229 12.9841 53.097 12.777C53.0841 12.5699 53.1293 12.3758 53.2327 12.1946C53.349 12.0004 53.5298 11.8516 53.7753 11.748L62.0892 8.38912V9.82587L53.7753 6.4864C53.5298 6.38285 53.349 6.24047 53.2327 6.05926C53.1293 5.8651 53.0841 5.66448 53.097 5.45738C53.1229 5.23733 53.1939 5.04318 53.3102 4.87491C53.4265 4.70664 53.588 4.59015 53.7947 4.52543C54.0014 4.44777 54.234 4.46071 54.4924 4.56426L61.9535 7.63191C62.6512 7.91668 63 8.40206 63 9.08808C63 9.43756 62.9096 9.73526 62.7287 9.98119C62.5607 10.2271 62.3023 10.4277 61.9535 10.5831L54.4924 13.6313Z" fill="white"/>
</svg>
